inDegrees=no
num_controls=7
num_derivatives=13
num_iterations=129
num_multipliers=7
num_parameters=0
num_slacks=7
num_states=26
objective=4.969165
objective_accelerations=0.632778
objective_balance=0.103217
objective_effort=0.440598
objective_height=3.734707
objective_ligament=0.057864
solver_duration=2488.808687
status=Solve_Succeeded
success=true
DataType=double
version=3
OpenSimVersion=4.4-2022-07-23-0e9fedc
endheader
time	/jointset/ground_pelvis/pelvis_tilt/value	/jointset/ground_pelvis/pelvis_tx/value	/jointset/ground_pelvis/pelvis_ty/value	/jointset/hip_l/hip_flexion_l/value	/jointset/hip_l/hip_adduction_l/value	/jointset/hip_l/hip_rotation_l/value	/jointset/back/lumbar_extension/value	/jointset/patellofemoral_l/patellar_flexion_l/value	/jointset/knee_l/knee_flexion_l/value	/jointset/knee_l/knee_adduction_l/value	/jointset/knee_l/knee_rotation_l/value	/jointset/ankle_l/ankle_angle_l/value	/jointset/subtalar_l/subtalar_angle_l/value	/jointset/ground_pelvis/pelvis_tilt/speed	/jointset/ground_pelvis/pelvis_tx/speed	/jointset/ground_pelvis/pelvis_ty/speed	/jointset/hip_l/hip_flexion_l/speed	/jointset/hip_l/hip_adduction_l/speed	/jointset/hip_l/hip_rotation_l/speed	/jointset/back/lumbar_extension/speed	/jointset/patellofemoral_l/patellar_flexion_l/speed	/jointset/knee_l/knee_flexion_l/speed	/jointset/knee_l/knee_adduction_l/speed	/jointset/knee_l/knee_rotation_l/speed	/jointset/ankle_l/ankle_angle_l/speed	/jointset/subtalar_l/subtalar_angle_l/speed	/forceset/tau_hip_flexion_l	/forceset/tau_hip_adduction_l	/forceset/tau_hip_rotation_l	/forceset/tau_knee_flexion_l	/forceset/tau_ankle_angle_l	/forceset/tau_subtalar_angle_l	/forceset/tau_lumbar_extension	lambda_cid13_p0	lambda_cid13_p1	lambda_cid13_p2	lambda_cid13_p3	lambda_cid13_p4	lambda_cid13_p5	lambda_cid14_p0	/jointset/ground_pelvis/pelvis_tilt/accel	/jointset/ground_pelvis/pelvis_tx/accel	/jointset/ground_pelvis/pelvis_ty/accel	/jointset/hip_l/hip_flexion_l/accel	/jointset/hip_l/hip_adduction_l/accel	/jointset/hip_l/hip_rotation_l/accel	/jointset/back/lumbar_extension/accel	/jointset/patellofemoral_l/patellar_flexion_l/accel	/jointset/knee_l/knee_flexion_l/accel	/jointset/knee_l/knee_adduction_l/accel	/jointset/knee_l/knee_rotation_l/accel	/jointset/ankle_l/ankle_angle_l/accel	/jointset/subtalar_l/subtalar_angle_l/accel	gamma_cid13_p0	gamma_cid13_p1	gamma_cid13_p2	gamma_cid13_p3	gamma_cid13_p4	gamma_cid13_p5	gamma_cid14_p0
0.5	-0.400084888331017	-0.04063670202577048	0.7442563623034701	1.291173943230753	-0.3049668004701012	0.02030290467061308	-0.332152217930412	0.8722798224852578	0.8722798224852347	-0.1683549959840691	0.1744939514939863	0.1643164500945933	-0.02000067325716418	-0.5949204707077071	-0.1788438071253844	-0.5928597591257839	2.454677660291798	0.03177907574619181	0.7993159267821245	-0.6196604548461899	2.255402447466926	2.25540244746681	-0.02124561907999992	-0.0001788682733831787	0.5340590585100609	0.120844300656485	-0.2247394776934825	0.02577376150997018	-0.02390229259611481	-0.2378796092448275	0.08625686349768674	0.03515014909199079	0.2094434994036688	-10.18579840957331	-15.84834789405209	4.826893731663606	-2.299789406320157	-602.7313039428861	-51.62965973383389	-17.2008723029641	0.6770069483128712	0.668609234253425	-0.4616318654825129	-1.573944949743552	0.8105935069977805	-0.4173804906938579	1.837082738201312	-1.52360180490167	-1.523601804901682	-0.03236195938922157	-0.002612428976665363	-0.6789035635116212	0.853364354605685	-4.543744975354583e-07	-7.887684404012785e-07	2.583466109661399e-06	2.460619442554852e-07	-5.139395927886497e-07	-1.044076201823177e-07	-4.633603316106523e-07
0.51	-0.4059989513679978	-0.04239152972682043	0.7383059904154431	1.315637940866191	-0.3046101143247241	0.02827590106283628	-0.3382569191462276	0.8947541277222617	0.8947541277222548	-0.1685724367196767	0.1744922733119187	0.1696216778080985	-0.01875144961384549	-0.5878168699470296	-0.1721108889098287	-0.5970855572023791	2.4378027450839	0.03952329961377138	0.7951878462081587	-0.6012188986807575	2.239155515781515	2.239155515781466	-0.02222444643901117	-0.0001506729305921304	0.526892190379929	0.1289678874860364	-0.2323586115971328	0.02588141171381371	-0.02376960338210523	-0.2403993165197003	0.08431057780426932	0.03515591259055376	0.2155430522295855	-11.09456553240685	-15.56164198690791	4.632589319616039	-1.970710279996471	-608.0188397438496	-51.30426348145136	-15.78569123939552	0.7382842099681718	0.677308968479703	-0.3837941114833383	-1.792187635788247	0.7508070367163743	-0.4252417120069421	1.856825501026004	-1.720611601035964	-1.7206116010259	-0.1279828352561377	0.005934205715184623	-0.7497187479853843	0.7867942250824203	-4.183632209013985e-07	-6.644433194103735e-07	2.455027153957203e-06	2.430549923182033e-07	-4.783562702529725e-07	-1.320228785447605e-08	-4.326565643625828e-07
0.52	-0.4118397288833671	-0.04407869307506023	0.7323172124801035	1.339923604783658	-0.3041770918986532	0.03620467267506612	-0.3441753781113257	0.9170568890922735	0.9170568890922868	-0.1687991336710979	0.1744909568212379	0.1748524087782583	-0.01742200242664074	-0.5802633663854379	-0.1653109365633534	-0.6005409685884313	2.419010916696986	0.04704633188448399	0.7904709707838359	-0.5824120047028584	2.221093674069096	2.221093674069115	-0.02309686224198431	-0.0001065299954785438	0.5191597098409414	0.1368890094336932	-0.2399777455007658	0.02598906191766095	-0.02363691416806608	-0.242919023794578	0.08236429211085013	0.03516167608912096	0.2216426050555213	-12.00795229586087	-15.27622461194621	4.44088818521862	-1.656195993426859	-613.3959737764727	-51.06393452971098	-14.37986463281702	0.7669875084957517	0.6820160604373934	-0.307554527373899	-1.957327585546665	0.7663551876243775	-0.5351394607653213	1.910150300694683	-1.886583810303162	-1.886583810303146	-0.01107964818161579	0.0005770894878597585	-0.7920260452826509	0.812871378226772	-3.788977165234773e-07	-5.372430503240549e-07	2.309340060965934e-06	2.36832984594089e-07	-4.394322713758145e-07	7.292343955996307e-08	-3.989072602021743e-07
0.53	-0.4176028830302211	-0.04569759989237322	0.726297757475125	1.364012090649137	-0.3036698120995532	0.04408337801066044	-0.3499040338726129	0.9391701884734753	0.9391701884734871	-0.1690336766609276	0.1744900466351797	0.1800031528085411	-0.01601420984966358	-0.5722999297442017	-0.1584660853812544	-0.6032175875459571	2.398380440195181	0.05436639224710462	0.7851796622688723	-0.563275229299665	2.201275551914065	2.201275551913954	-0.02379879871506145	-6.921550229338319e-05	0.5109033861318872	0.1446261646483053	-0.2473963524383258	0.02595129796691283	-0.02345879605772698	-0.2455658926076943	0.08057982534531144	0.03497895161479275	0.2275411090659271	-12.87376226184673	-14.9084771137468	4.226007464293513	-1.326895967768543	-618.7338962416879	-50.71496740108071	-12.98696634337873	0.8211186652826563	0.6864175878870541	-0.2279326482078913	-2.1618235952871	0.7080628506062763	-0.5400194823791979	1.92202889825491	-2.072947720589083	-2.072947720608417	-0.09784258609093024	0.00579515271373616	-0.8552809414953945	0.7474490647642922	-3.393693498582581e-07	-4.305233236581368e-07	2.152484223392418e-06	2.263592708246432e-07	-4.004582540808446e-07	1.436486034693395e-07	-3.654052153705156e-07
0.54	-0.4232843834259938	-0.04724791860970706	0.7202554928669189	1.387885088567043	-0.3030906854188194	0.05190639167399991	-0.3554400043322427	0.9610766023726272	0.9610766023726394	-0.1692748574033348	0.174489606898745	0.1850687645201777	-0.01453038342620308	-0.563932616169167	-0.1515933165675281	-0.6051028892341441	2.375913327181789	0.06141570821073934	0.7793326363332205	-0.543874944371547	2.179716577659592	2.179716577659353	-0.02442441275694452	-1.244006991725105e-05	0.5021332461116892	0.1520957787303551	-0.2548149593758673	0.02591353401616918	-0.02328067794739188	-0.2482127614208104	0.07879535857977198	0.03479622714046993	0.2334396130763521	-13.74433710773328	-14.54083739510273	4.012221937666695	-1.011582439265469	-624.1603468799134	-50.44063371911172	-11.61014454041211	0.8477628952554739	0.6875995867628818	-0.149291073506147	-2.324654887863852	0.7122063078271827	-0.6462829449029827	1.9628522056796	-2.23475423019148	-2.234754230191498	0.004184838057185577	0.004469277326060575	-0.894789307511393	0.7593631517143142	-2.997714334283688e-07	-3.464629205211728e-07	1.983271476919392e-06	2.111815418561073e-07	-3.614288972597846e-07	1.973348460539656e-07	-3.321767340515161e-07
0.55	-0.4288803280476746	-0.04872944542215514	0.7141983419026244	1.411524546178993	-0.302442211627975	0.05966807062918559	-0.3607807145141139	0.9827589933849973	0.9827589933849911	-0.1695213611163625	0.1744897092068435	0.1900443099118517	-0.01297296018743443	-0.5551949280586953	-0.1447140862635815	-0.6061930243121382	2.35168654900094	0.06823651997564983	0.7729162208077919	-0.5242363229597324	2.156487069861071	2.156487069860841	-0.02485310487507457	3.009385333962784e-05	0.4929030089594151	0.1593456378444533	-0.2620721530524755	0.02568636016756588	-0.02304775421542494	-0.2508539435920319	0.0769874436112903	0.03455519013011862	0.2391593061910016	-14.62003125145661	-14.14341782005488	3.789622378291342	-0.6472361639311339	-629.49148001038	-50.15764233665856	-10.25198006983292	0.8959542699203858	0.6878192816433722	-0.06880085608021799	-2.515469280107273	0.6603898826892214	-0.6526265958951966	1.968982465264568	-2.40816948723761	-2.408169487236198	-0.06293637458883793	0.003334531333534627	-0.9480492573354468	0.7011379582679348	-2.864234238189295e-07	-3.877357632245317e-07	1.894075847673634e-06	2.020855533110597e-07	-3.542258659678817e-07	2.122030622303473e-07	-3.238351056787206e-07
0.5600000000000001	-0.434387059288055	-0.05014223302567725	0.7081343043613239	1.434912980009754	-0.3017268554651057	0.06736292428120702	-0.3659241154105998	1.004200865232869	1.004200865232847	-0.1697714597781446	0.1744900746704713	0.194925371264353	-0.01134437022412265	-0.5460899399091355	-0.1378454747823361	-0.6064802046355015	2.325708570943622	0.07479218261520981	0.7659675757010725	-0.504413087294636	2.131612744760344	2.131612744760123	-0.02514340250683411	4.019103691342142e-05	0.4832364382771398	0.1663291236389693	-0.2693293467290683	0.02545918631896241	-0.02281483048344797	-0.2534951257632546	0.07517952864280689	0.03431415311976706	0.2448789993056678	-15.50092921052686	-13.74541590044947	3.567307207311424	-0.2943979746182553	-634.9133992968907	-49.94063680553045	-8.914614872180813	0.9212229030730862	0.6854758222226612	0.01129987742000222	-2.674894863157466	0.6591764827570703	-0.7527288611611005	1.999775056335955	-2.56371769063264	-2.563717690632643	0.03186373533127363	-0.002018070610559039	-0.9820560135115735	0.7060884877979134	-3.045753023940294e-07	-5.794085009362736e-07	1.900900759100593e-06	2.002876532741981e-07	-3.85214425310966e-07	1.804896467168373e-07	-3.453577008413689e-07
0.5700000000000001	-0.4398010766395465	-0.05148646140120459	0.7020714326799065	1.45803303751988	-0.3009475537054488	0.07498539261970141	-0.3708685216578975	1.025385780497892	1.025385780497849	-0.1700240177148383	0.1744909067367942	0.1997075361540658	-0.009647680335187651	-0.5366612213317078	-0.1310076453736188	-0.6059594642130952	2.298026781343297	0.08102065447351423	0.7584403142607488	-0.4844561726672336	2.105111024399266	2.105111024399212	-0.02534380525751862	0.0001245690116263229	0.4731357268243124	0.1729577414966942	-0.2762393264488454	0.0251895959050556	-0.02254788726192325	-0.2563019762840251	0.07362621499893549	0.03382613756222147	0.2502778714212749	-16.30027226840303	-13.24137378671754	3.313170431482067	0.05771105217227164	-640.1828353139227	-49.55852341604257	-7.616207753835297	0.9615157875887681	0.6818595968383747	0.09258069122162955	-2.85628016604497	0.5973287365608873	-0.7659067804296569	1.9954480904826	-2.732220279156928	-2.732220279131883	-0.04243198018810571	0.01301892404027854	-1.033200292111258	0.6334670623429955	-3.053342833510539e-07	-6.482895142818906e-07	1.877783212415583e-06	2.001984155006248e-07	-3.933399514493279e-07	1.88400533161458e-07	-3.496778857544207e-07
0.58	-0.4451192429147607	-0.05276252686331642	0.6960177923160282	1.48086798530249	-0.3001074379873672	0.08252995194479314	-0.3756129990740122	1.04629791434524	1.046297914345179	-0.1702778676190357	0.1744924532213635	0.2043868696130614	-0.007886260542158675	-0.5269197246538403	-0.124212892099235	-0.6046339411278464	2.268686625439979	0.08695497429957118	0.7503857730219636	-0.4644273210582281	2.077056461225726	2.07705646122584	-0.02540179600499625	0.0001830746874576139	0.4626701521337681	0.1792751044577505	-0.2831493061686108	0.02492000549113852	-0.02228094404033837	-0.2591088268048013	0.07207290135505971	0.03333812200466277	0.255676743536896	-17.09993540835235	-12.74522521521093	3.069373922533151	0.36432406834689	-645.4627843326467	-49.2522703432474	-6.426978302786305	0.9837785231610288	0.6768605953559899	0.172256409988527	-3.006568123756046	0.600346076307582	-0.8581848208533343	2.014162452656559	-2.874286253125006	-2.874286253125001	0.06034613597264145	-0.007192530386890562	-1.055028661054908	0.6438375084641933	-2.834420488054694e-07	-5.572557238018628e-07	1.815670836561501e-06	2.023344123024966e-07	-3.716903645768896e-07	2.479151616910838e-07	-3.315949317377663e-07
